<svg version="1.2" xmlns="http://www.w3.org/2000/svg" viewBox="0 0 55 55" width="55" height="55">
	<title>gift-box-svg</title>
	<style>
		.s0 { fill: #fb5994 } 
	</style>
	<path id="Layer" class="s0" d="m48.3 53.5h-41.6q-0.5 0-0.9-0.2-0.4-0.1-0.7-0.4-0.3-0.4-0.5-0.8-0.1-0.4-0.1-0.8v-29q0-0.3 0.2-0.5 0.2-0.2 0.5-0.2 0.3 0 0.5 0.2 0.2 0.2 0.2 0.5v29q0 0.1 0.1 0.3 0.1 0.1 0.2 0.2 0.1 0.1 0.2 0.2 0.1 0 0.3 0h41.6q0.2 0 0.3 0 0.1-0.1 0.2-0.2 0.1-0.1 0.2-0.2 0.1-0.2 0.1-0.3v-29q0-0.3 0.2-0.5 0.2-0.2 0.5-0.2 0.3 0 0.5 0.2 0.2 0.2 0.2 0.5v29q0 0.4-0.1 0.8-0.2 0.4-0.5 0.8-0.3 0.3-0.7 0.4-0.4 0.2-0.9 0.2zm3.7-30.5h-13.1q-0.3 0-0.5-0.2-0.3-0.2-0.3-0.5 0-0.3 0.3-0.5 0.2-0.2 0.5-0.2h13.1v-7.5h-49v7.5h13.1q0.3 0 0.5 0.2 0.3 0.2 0.3 0.5 0 0.3-0.3 0.5-0.2 0.2-0.5 0.2h-13.1q-0.3 0-0.6-0.1-0.3-0.1-0.5-0.3-0.2-0.2-0.3-0.5-0.1-0.3-0.1-0.5v-7.5q0-0.3 0.1-0.5 0.1-0.3 0.3-0.5 0.2-0.2 0.5-0.4 0.3-0.1 0.6-0.1h49q0.3 0 0.6 0.1 0.3 0.2 0.5 0.4 0.2 0.2 0.3 0.5 0.1 0.2 0.1 0.5v7.5q0 0.2-0.1 0.5-0.1 0.3-0.3 0.5-0.2 0.2-0.5 0.3-0.3 0.1-0.6 0.1zm-24.5-8.9q-0.2 0-0.4-0.1-0.1-0.1-0.2-0.3-0.1-0.1-0.1-0.3 0-0.2 0.1-0.4c1.6-2.8 5.6-9.3 7.9-10.6 1.3-0.9 3-1.2 4.6-0.8 1.6 0.3 3 1.4 3.9 2.8 0.8 1.4 1 3.1 0.6 4.7-0.4 1.6-1.5 2.9-2.9 3.7q-1.4 0.8-5.5 1.3-0.3 0.1-0.5-0.1-0.3-0.2-0.3-0.5-0.1-0.3 0.1-0.6 0.2-0.2 0.5-0.3c3.3-0.3 4.5-0.8 4.9-1.1q0.4-0.2 0.8-0.5 0.3-0.3 0.6-0.7 0.2-0.3 0.4-0.7 0.2-0.5 0.3-0.9c0.3-0.9 0.2-1.8-0.1-2.7-0.3-0.8-0.8-1.6-1.6-2.1-0.7-0.6-1.6-0.9-2.5-0.9-0.9-0.1-1.8 0.2-2.6 0.6-1.6 1-4.8 5.9-7.4 10.2q0 0-0.1 0.1 0 0.1-0.1 0.1-0.1 0.1-0.2 0.1-0.1 0-0.2 0zm0 0q-0.1 0-0.2 0-0.1 0-0.2-0.1-0.1 0-0.1-0.1-0.1-0.1-0.1-0.1c-2.6-4.3-5.8-9.2-7.4-10.2-1.1-0.6-2.3-0.9-3.6-0.6-1.2 0.3-2.2 1.1-2.9 2.1-0.6 1.1-0.8 2.4-0.5 3.6 0.4 1.2 1.2 2.2 2.3 2.8 0.4 0.3 1.6 0.8 4.9 1.1q0.3 0.1 0.5 0.3 0.2 0.3 0.1 0.6 0 0.3-0.3 0.5-0.2 0.2-0.5 0.1-4.1-0.5-5.5-1.3c-1.4-0.8-2.5-2.1-2.9-3.7-0.4-1.6-0.2-3.3 0.7-4.7 0.8-1.4 2.2-2.5 3.8-2.8 1.6-0.4 3.3-0.1 4.7 0.8 2.2 1.3 6.2 7.8 7.8 10.6q0.1 0.2 0.1 0.4 0 0.2-0.1 0.3-0.1 0.2-0.2 0.3-0.2 0.1-0.4 0.1zm3.7 39.4h-7.4q-0.2 0-0.3 0-0.1-0.1-0.2-0.2-0.1-0.1-0.2-0.2-0.1-0.2-0.1-0.3v-31.2q0-0.3 0.3-0.5 0.2-0.2 0.5-0.2 0.3 0 0.5 0.2 0.2 0.2 0.2 0.5v30.4h6v-30.4q0-0.3 0.2-0.5 0.2-0.2 0.5-0.2 0.3 0 0.5 0.2 0.3 0.2 0.3 0.5v31.2q0 0.1-0.1 0.3-0.1 0.1-0.2 0.2-0.1 0.1-0.2 0.2-0.1 0-0.3 0zm0-31.2h-7.4q-0.3 0-0.5-0.2-0.2-0.2-0.2-0.5 0-0.4 0.2-0.6 0.2-0.2 0.5-0.2h7.4q0.3 0 0.5 0.2 0.2 0.2 0.2 0.6 0 0.3-0.2 0.5-0.2 0.2-0.5 0.2zm3.5 7.8q-0.1 0-0.2 0-0.1 0-0.2-0.1-0.1 0-0.2-0.1 0-0.1-0.1-0.2l-7.2-16q-0.1-0.3 0-0.6 0.1-0.3 0.4-0.4 0.3-0.1 0.6 0 0.2 0.1 0.4 0.4l6.4 14.2 0.9-3q0.1-0.2 0.2-0.3 0.1-0.1 0.2-0.2 0.2-0.1 0.3-0.1 0.2 0 0.4 0.1l2.8 1.3-5.4-11.4q-0.1-0.3 0-0.6 0.1-0.3 0.4-0.4 0.3-0.1 0.6 0 0.2 0.1 0.4 0.4l6.2 13.2q0 0.2 0 0.4 0 0.2-0.2 0.4-0.2 0.2-0.4 0.2-0.2 0-0.4-0.1l-3.9-1.7-1.3 4.1q0 0.1-0.1 0.2 0 0.1-0.1 0.2-0.1 0.1-0.2 0.1-0.1 0-0.2 0zm-14.5 0q-0.1 0-0.2 0-0.1 0-0.2-0.1-0.1-0.1-0.2-0.2 0-0.1-0.1-0.2l-1.3-4.1-3.8 1.7q-0.2 0.1-0.5 0.1-0.2 0-0.4-0.2-0.1-0.2-0.2-0.4 0-0.2 0.1-0.4l6.2-13.2q0.1-0.3 0.4-0.4 0.3-0.1 0.6 0 0.2 0.1 0.3 0.4 0.1 0.3 0 0.6l-5.3 11.4 2.8-1.3q0.1-0.1 0.3-0.1 0.2 0 0.3 0.1 0.1 0.1 0.3 0.2 0.1 0.1 0.1 0.3l1 3 6.4-14.2q0.1-0.3 0.4-0.4 0.3-0.1 0.5 0 0.3 0.1 0.4 0.4 0.1 0.3 0 0.6l-7.2 16q0 0.1-0.1 0.2-0.1 0.1-0.2 0.1 0 0.1-0.1 0.1-0.1 0-0.3 0z"/>
</svg>